<?xml version="1.0" encoding="iso-8859-1"?>
<!-- Generator: Adobe Illustrator 19.0.0, SVG Export Plug-In . SVG Version: 6.00 Build 0)  -->
<svg version="1.1" id="Layer_1" xmlns="http://www.w3.org/2000/svg" xmlns:xlink="http://www.w3.org/1999/xlink" x="0px" y="0px"
	 viewBox="0 0 280.028 280.028" style="enable-background:new 0 0 280.028 280.028;" xml:space="preserve">
<g>
	<path style="fill:#D07C40;" d="M35.004,0h210.02v78.758H35.004V0z"/>
	<path style="fill:#F4B459;" d="M262.527,61.256v201.27c0,9.626-7.876,17.502-17.502,17.502H35.004
		c-9.626,0-17.502-7.876-17.502-17.502V61.256H262.527z"/>
	<path style="fill:#F4B459;" d="M35.004,70.007h26.253V26.253L35.004,0V70.007z M218.771,26.253v43.754h26.253V0L218.771,26.253z"/>
	<path style="fill:#E3911C;" d="M61.257,61.256V26.253L17.503,61.256H61.257z M218.771,26.253v35.003h43.754L218.771,26.253z"/>
	<path style="fill:#CF984A;" d="M65.632,105.01c-5.251,0-8.751,3.5-8.751,8.751s3.5,8.751,8.751,8.751s8.751-3.5,8.751-8.751
		C74.383,108.511,70.883,105.01,65.632,105.01z M214.396,105.01c-5.251,0-8.751,3.5-8.751,8.751s3.5,8.751,8.751,8.751
		s8.751-3.5,8.751-8.751C223.148,108.511,219.646,105.01,214.396,105.01z"/>
	<path style="fill:#CF984A;" d="M65.632,121.637c5.251,0,6.126,6.126,6.126,6.126c0,39.379,29.753,70.882,68.257,70.882
		s68.257-31.503,68.257-70.882c0,0,0.875-6.126,6.126-6.126s6.126,6.126,6.126,6.126c0,46.38-35.003,83.133-80.508,83.133
		s-80.508-37.629-80.508-83.133C59.507,127.762,60.382,121.637,65.632,121.637z"/>
	<path style="fill:#FDFBF7;" d="M65.632,112.886c5.251,0,6.126,6.126,6.126,6.126c0,39.379,29.753,70.882,68.257,70.882
		s68.257-31.503,68.257-70.882c0,0,0.875-6.126,6.126-6.126s6.126,6.126,6.126,6.126c0,46.38-35.003,83.133-80.508,83.133
		s-80.508-37.629-80.508-83.133C59.507,119.012,60.382,112.886,65.632,112.886z"/>
</g>
<g>
</g>
<g>
</g>
<g>
</g>
<g>
</g>
<g>
</g>
<g>
</g>
<g>
</g>
<g>
</g>
<g>
</g>
<g>
</g>
<g>
</g>
<g>
</g>
<g>
</g>
<g>
</g>
<g>
</g>
</svg>
